<svg width="450" height="450" viewBox="0 0 450 450" fill="none" xmlns="http://www.w3.org/2000/svg">
<path d="M214.409 40.3673C199.703 42.7319 176.98 55.8233 158.006 72.8364L153.796 76.6427L120.808 76.8734C84.5326 77.1041 85.5707 76.9887 77.7274 80.795C73.056 83.1019 67.1158 88.9267 64.6359 93.7134C60.7719 101.268 61.0026 92.041 61.0026 224.685C61.0026 356.868 60.7719 348.218 64.6359 355.484C67.2888 360.502 72.5946 365.634 77.785 368.172C86.032 372.209 82.8601 372.036 145.549 371.863C201.836 371.69 202.009 371.69 204.662 370.479C208.123 368.864 211.756 365.577 213.659 362.289C215.735 358.829 216.139 352.197 214.697 347.699C213.371 343.719 207.777 337.952 204.259 336.914C202.644 336.453 196.242 336.222 184.016 336.222C174.212 336.222 150.912 336.049 132.342 335.818L98.4891 335.472V223.936V112.457H116.021H133.611L133.784 157.844C134.015 199.887 134.072 203.52 135.053 206.461C137.59 214.074 140.993 218.515 146.472 221.456C149.528 223.128 150.855 223.474 154.892 223.647C157.833 223.82 160.659 223.647 162.331 223.128C165.849 222.148 170.232 217.995 171.097 214.824C171.501 213.266 171.732 198.214 171.732 167.245C171.732 117.301 171.674 118.628 175.365 111.707C179.864 103.172 186.611 97.9811 208.988 85.9278C214.985 82.6982 223.117 78.2575 227.096 76.1236C231.076 73.9898 238.342 70.0681 243.245 67.4729C258.585 59.2836 262.853 56.919 262.853 56.5153C262.853 55.7079 257.605 51.2672 253.337 48.499C248.147 45.0964 241.86 42.3858 236.209 41.1747C231.249 40.079 218.907 39.6176 214.409 40.3673Z" fill="black"/>
<path d="M248.666 77.2195C243.014 78.6036 238.458 82.4676 235.92 88.0618C232.287 96.0204 236.612 106.459 245.263 110.784L248.147 112.168L299.071 112.341L349.937 112.457V224.051V335.645H331.424H312.969L313.431 329.994C313.661 326.937 313.892 307.156 313.892 286.048C313.892 250.926 313.777 247.293 312.854 243.198C310.951 235.124 305.414 228.953 298.148 226.877C293.88 225.608 287.075 226.012 283.845 227.684C281.25 229.011 278.078 232.298 277.213 234.547C276.925 235.355 276.694 254.271 276.694 280.338C276.694 329.763 276.694 329.417 272.83 336.914C268.389 345.392 259.508 352.255 238.054 363.731C216.946 375.035 205.643 380.975 195.089 386.281C189.379 389.165 184.189 391.875 183.555 392.336C182.401 393.202 182.401 393.202 183.555 394.47C185.573 396.719 195.608 403.063 199.991 404.851C208.18 408.254 212.679 409.119 222.194 409.119C232.46 409.177 237.535 408.138 246.532 404.044C260.373 397.873 278.885 385.589 289.439 375.612L293.246 371.978H326.118C356.742 371.978 359.28 371.921 363.374 370.883C375.255 367.826 383.963 359.348 386.847 348.045C388 343.604 388 341.413 388 225.262C388 148.617 387.769 105.652 387.423 103.229C386.616 98.0389 383.04 90.8877 379.292 87.139C373.409 81.1412 367.642 78.3729 358.991 77.2772C353.57 76.5851 251.492 76.5851 248.666 77.2195Z" fill="black"/>
<path d="M224.789 150.808C214.812 153 204.604 160.785 200.337 169.551C197.453 175.491 196.53 180.336 196.53 190.025C196.53 200.809 196.3 199.713 207.142 245.043C209.218 253.752 210.948 261.076 210.948 261.307C210.948 261.595 196.992 261.883 179.979 261.941C149.586 262.114 148.894 262.114 146.241 263.383C142.204 265.228 138.686 268.804 136.84 272.841C135.456 276.013 135.283 276.936 135.514 280.8C135.86 286.278 137.475 289.854 141.339 293.314C142.838 294.641 145.549 296.313 147.279 296.948C150.336 298.101 151.547 298.159 184.304 298.159C222.367 298.159 222.886 298.101 230.96 294.122C236.266 291.469 242.091 286.336 244.686 281.78C248.204 275.782 249.127 272.034 249.473 263.21C249.761 253.579 250.107 255.309 240.591 215.746C236.958 200.694 234.017 188.179 234.017 187.949C234.017 187.66 248.723 187.372 266.774 187.314L299.474 187.141L302.358 185.815C306.164 184.085 310.316 179.874 311.931 176.241C313.892 171.743 313.834 165.745 311.7 161.189C309.74 156.979 306.798 153.807 302.934 151.788L300.051 150.231L264.294 150.116C235.343 150.058 227.846 150.174 224.789 150.808Z" fill="black"/>
</svg>
