<svg width="450" height="450" viewBox="0 0 450 450" fill="none" xmlns="http://www.w3.org/2000/svg">
<path d="M77.0524 356.456V407H64.7404V376.688L53.4364 407H43.5004L32.1244 376.616V407H19.8124V356.456H34.3564L48.5404 391.448L62.5804 356.456H77.0524ZM105.418 366.32V376.544H121.906V386.048H105.418V397.136H124.066V407H93.1062V356.456H124.066V366.32H105.418ZM175.619 356.456V366.32H162.227V407H149.915V366.32H136.523V356.456H175.619ZM220.462 398.072H201.598L198.574 407H185.686L203.974 356.456H218.23L236.518 407H223.486L220.462 398.072ZM217.294 388.568L211.03 370.064L204.838 388.568H217.294ZM284.054 397.496H300.182V407H271.742V356.456H284.054V397.496ZM325.567 356.456V407H313.255V356.456H325.567ZM359.977 407.504C356.281 407.504 352.969 406.904 350.041 405.704C347.113 404.504 344.761 402.728 342.985 400.376C341.257 398.024 340.345 395.192 340.249 391.88H353.353C353.545 393.752 354.193 395.192 355.297 396.2C356.401 397.16 357.841 397.64 359.617 397.64C361.441 397.64 362.881 397.232 363.937 396.416C364.993 395.552 365.521 394.376 365.521 392.888C365.521 391.64 365.089 390.608 364.225 389.792C363.409 388.976 362.377 388.304 361.129 387.776C359.929 387.248 358.201 386.648 355.945 385.976C352.681 384.968 350.017 383.96 347.953 382.952C345.889 381.944 344.113 380.456 342.625 378.488C341.137 376.52 340.393 373.952 340.393 370.784C340.393 366.08 342.097 362.408 345.505 359.768C348.913 357.08 353.353 355.736 358.825 355.736C364.393 355.736 368.881 357.08 372.289 359.768C375.697 362.408 377.521 366.104 377.761 370.856H364.441C364.345 369.224 363.745 367.952 362.641 367.04C361.537 366.08 360.121 365.6 358.393 365.6C356.905 365.6 355.705 366.008 354.793 366.824C353.881 367.592 353.425 368.72 353.425 370.208C353.425 371.84 354.193 373.112 355.729 374.024C357.265 374.936 359.665 375.92 362.929 376.976C366.193 378.08 368.833 379.136 370.849 380.144C372.913 381.152 374.689 382.616 376.177 384.536C377.665 386.456 378.409 388.928 378.409 391.952C378.409 394.832 377.665 397.448 376.177 399.8C374.737 402.152 372.625 404.024 369.841 405.416C367.057 406.808 363.769 407.504 359.977 407.504ZM431.706 372.728C431.706 375.656 431.034 378.344 429.69 380.792C428.346 383.192 426.282 385.136 423.498 386.624C420.714 388.112 417.258 388.856 413.13 388.856H405.498V407H393.186V356.456H413.13C417.162 356.456 420.57 357.152 423.354 358.544C426.138 359.936 428.226 361.856 429.618 364.304C431.01 366.752 431.706 369.56 431.706 372.728ZM412.194 379.064C414.546 379.064 416.298 378.512 417.45 377.408C418.602 376.304 419.178 374.744 419.178 372.728C419.178 370.712 418.602 369.152 417.45 368.048C416.298 366.944 414.546 366.392 412.194 366.392H405.498V379.064H412.194Z" fill="white"/>
<path d="M217.193 44.2829C205.863 46.1047 188.356 56.1909 173.738 69.2986L170.494 72.2312L145.079 72.4089C117.131 72.5866 117.93 72.4978 111.888 75.4303C108.288 77.2076 103.712 81.6953 101.801 85.3833C98.8243 91.204 99.002 84.0947 99.002 186.29C99.002 288.13 98.8243 281.465 101.801 287.064C103.845 290.929 107.933 294.884 111.932 296.839C118.286 299.949 115.842 299.816 164.14 299.683C207.507 299.549 207.64 299.549 209.684 298.616C212.35 297.372 215.149 294.839 216.616 292.307C218.215 289.641 218.526 284.531 217.415 281.065C216.393 277.999 212.083 273.556 209.373 272.756C208.129 272.401 203.197 272.223 193.777 272.223C186.224 272.223 168.273 272.09 153.965 271.912L127.883 271.645V185.712V99.8239H141.391H154.943L155.076 134.793C155.254 167.184 155.298 169.983 156.054 172.249C158.009 178.114 160.63 181.536 164.851 183.802C167.206 185.09 168.228 185.357 171.339 185.49C173.605 185.624 175.782 185.49 177.07 185.09C179.781 184.335 183.158 181.136 183.824 178.692C184.135 177.492 184.313 165.895 184.313 142.035C184.313 103.556 184.269 104.578 187.112 99.2463C190.578 92.6702 195.777 88.6713 213.017 79.3848C217.638 76.8966 223.903 73.4753 226.968 71.8313C230.034 70.1872 235.633 67.1658 239.41 65.1663C251.229 58.8569 254.517 57.0351 254.517 56.7241C254.517 56.1021 250.473 52.6807 247.185 50.548C243.186 47.9264 238.343 45.8381 233.989 44.905C230.168 44.0608 220.659 43.7053 217.193 44.2829Z" fill="white"/>
<path d="M243.586 72.6756C239.232 73.742 235.722 76.719 233.767 81.0289C230.968 87.1607 234.3 95.203 240.965 98.5355L243.187 99.6018L282.421 99.7351L321.61 99.824V185.801V271.779H307.348H293.129L293.484 267.424C293.662 265.07 293.84 249.829 293.84 233.567C293.84 206.507 293.751 203.708 293.04 200.553C291.574 194.333 287.308 189.578 281.71 187.979C278.422 187.001 273.179 187.312 270.69 188.601C268.691 189.623 266.247 192.155 265.581 193.888C265.359 194.51 265.181 209.084 265.181 229.168C265.181 267.247 265.181 266.98 262.204 272.756C258.782 279.288 251.94 284.575 235.411 293.418C219.148 302.126 210.44 306.703 202.308 310.791C197.91 313.012 193.911 315.101 193.422 315.456C192.533 316.123 192.533 316.123 193.422 317.1C194.977 318.833 202.708 323.721 206.085 325.098C212.395 327.72 215.86 328.386 223.192 328.386C231.101 328.431 235.011 327.631 241.942 324.476C252.606 319.722 266.869 310.258 275 302.571L277.933 299.772H303.26C326.854 299.772 328.809 299.727 331.963 298.927C341.116 296.572 347.826 290.041 350.047 281.332C350.936 277.911 350.936 276.222 350.936 186.735C350.936 127.683 350.758 94.5809 350.492 92.7148C349.87 88.7158 347.115 83.2062 344.227 80.318C339.695 75.697 335.251 73.5642 328.586 72.72C324.41 72.1868 245.764 72.1868 243.586 72.6756Z" fill="white"/>
<path d="M225.191 129.372C217.504 131.06 209.639 137.059 206.351 143.812C204.13 148.389 203.419 152.121 203.419 159.586C203.419 167.895 203.241 167.051 211.594 201.975C213.194 208.684 214.527 214.327 214.527 214.505C214.527 214.727 203.774 214.949 190.667 214.994C167.251 215.127 166.717 215.127 164.673 216.104C161.563 217.526 158.853 220.281 157.431 223.391C156.365 225.835 156.231 226.546 156.409 229.523C156.676 233.744 157.92 236.499 160.897 239.165C162.052 240.187 164.14 241.476 165.473 241.964C167.828 242.853 168.761 242.897 193.999 242.897C223.325 242.897 223.725 242.853 229.945 239.787C234.033 237.743 238.521 233.789 240.52 230.279C243.231 225.658 243.942 222.769 244.208 215.971C244.43 208.551 244.697 209.884 237.365 179.403C234.566 167.806 232.3 158.164 232.3 157.986C232.3 157.764 243.631 157.542 257.538 157.498L282.731 157.364L284.953 156.342C287.886 155.009 291.085 151.766 292.329 148.967C293.84 145.501 293.795 140.88 292.151 137.37C290.64 134.126 288.374 131.682 285.397 130.127L283.176 128.927L255.627 128.839C233.322 128.794 227.546 128.883 225.191 129.372Z" fill="white"/>
</svg>
